<svg width="34" height="34" viewBox="0 0 34 34" fill="none" xmlns="http://www.w3.org/2000/svg">
<path d="M21.7436 33.9999C23.1445 33.9999 24.2802 32.8159 24.2802 31.3554C24.2802 29.8949 23.1445 28.7109 21.7436 28.7109C20.3427 28.7109 19.207 29.8949 19.207 31.3554C19.207 32.8159 20.3427 33.9999 21.7436 33.9999Z" fill="white"/>
<path d="M10.146 33.9999C11.5469 33.9999 12.6825 32.8159 12.6825 31.3554C12.6825 29.8949 11.5469 28.7109 10.146 28.7109C8.74504 28.7109 7.60938 29.8949 7.60938 31.3554C7.60938 32.8159 8.74504 33.9999 10.146 33.9999Z" fill="white"/>
<path d="M5.20361 5.95407L4.91371 9.65631C4.85573 10.3665 5.39204 10.9559 6.07329 10.9559H28.2647C28.8735 10.9559 29.3808 10.4723 29.4243 9.83765C29.6127 7.16296 27.6559 4.98695 25.0904 4.98695H7.27635C7.13141 4.32206 6.84151 3.68739 6.39218 3.1585C5.66744 2.35761 4.65281 1.88916 3.60919 1.88916H1.0871C0.492821 1.88916 0 2.40294 0 3.0225C0 3.64206 0.492821 4.15584 1.0871 4.15584H3.60919C4.05852 4.15584 4.47887 4.35228 4.78326 4.68473C5.08765 5.03229 5.2326 5.48562 5.20361 5.95407Z" fill="white"/>
<path d="M27.9192 13.2227H5.68424C5.07546 13.2227 4.58264 13.7062 4.52466 14.3258L4.00285 20.8991C3.79993 23.4832 5.74222 25.6894 8.22082 25.6894H24.339C26.5132 25.6894 28.4265 23.8307 28.5859 21.564L29.0642 14.5071C29.1222 13.812 28.6004 13.2227 27.9192 13.2227Z" fill="white"/>
<rect x="19.6758" width="14.3242" height="14.9334" rx="7.1621" fill="#FF0000"/>
<path d="M23.7569 11V9.79769L26.7123 7.19653C26.9636 6.96532 27.1744 6.75723 27.3447 6.57225C27.5177 6.38728 27.6488 6.20617 27.7379 6.0289C27.8271 5.84907 27.8717 5.65511 27.8717 5.44701C27.8717 5.2158 27.8163 5.0167 27.7055 4.84971C27.5947 4.68015 27.4433 4.55042 27.2515 4.4605C27.0596 4.36802 26.842 4.32177 26.5988 4.32177C26.3447 4.32177 26.1231 4.37058 25.9339 4.46821C25.7447 4.56583 25.5988 4.70584 25.4961 4.88825C25.3933 5.07065 25.342 5.28773 25.342 5.5395H23.6758C23.6758 5.02312 23.7988 4.57482 24.0447 4.19461C24.2906 3.81439 24.6352 3.52023 25.0785 3.31214C25.5217 3.10405 26.0325 3 26.6109 3C27.2055 3 27.7231 3.10019 28.1636 3.30058C28.6069 3.49839 28.9515 3.77328 29.1974 4.12524C29.4433 4.4772 29.5663 4.88054 29.5663 5.33526C29.5663 5.63327 29.5042 5.92742 29.3798 6.21773C29.2582 6.50803 29.0406 6.83044 28.7271 7.18497C28.4136 7.53693 27.9717 7.95954 27.4015 8.45279L26.1893 9.58189V9.63584H29.6758V11H23.7569Z" fill="white"/>
</svg>
